<svg width="100" height="100" viewBox="0 0 100 100" xmlns="http://www.w3.org/2000/svg"><path d="M15 10 C12.2386 10 10 12.2386 10 15 L10 40 C10 42.7614 12.2386 45 15 45 L20 45 L20 50 C20 52.7614 22.2386 55 25 55 C27.7614 55 30 52.7614 30 50 L30 45 L70 45 L70 50 C70 52.7614 72.2386 55 75 55 C77.7614 55 80 52.7614 80 50 L80 45 L85 45 C87.7614 45 90 42.7614 90 40 L90 15 C90 12.2386 87.7614 10 85 10 Z M25 50 C23.8954 50 23 49.1046 23 48 C23 46.8954 23.8954 46 25 46 C26.1046 46 27 46.8954 27 48 C27 49.1046 26.1046 50 25 50 Z M75 50 C73.8954 50 73 49.1046 73 48 C73 46.8954 73.8954 46 75 46 C76.1046 46 77 46.8954 77 48 C77 49.1046 76.1046 50 75 50 Z" fill="currentColor" fill-opacity="0.1"></path></svg>