<svg width="1920" height="400" viewBox="0 0 1920 400" fill="none" xmlns="http://www.w3.org/2000/svg">
<path d="M0 400V300L50 280L100 320L150 290L200 310L250 280L300 300L350 250L400 280L450 260L480 270L500 220L520 230L550 200L600 250L650 230L700 260L750 220L800 250L830 180L850 190L880 150L920 190L950 160L980 180L1020 120L1050 150L1100 100L1150 140L1200 120L1250 180L1300 160L1350 200L1400 180L1450 220L1500 200L1550 240L1600 210L1650 250L1700 230L1750 260L1800 240L1850 280L1900 260L1920 270V400H0Z" fill="currentColor"/>
</svg>
